<svg xmlns="http://www.w3.org/2000/svg" width="196" height="32" viewBox="0 0 196 32" role="img" aria-label="Pocket Mint">
  <title>Pocket Mint</title>
  <svg x="0" y="0" width="32" height="32" viewBox="0 0 24 24" aria-hidden="true">
    <path fill="currentColor" d="M5 1.75h12L13.75 5h-7A1.5 1.5 0 0 0 5.25 6.5v11.25a1.5 1.5 0 0 0 1.5 1.5h10.5a1.5 1.5 0 0 0 1.5-1.5V9l3.5-3.5V19A3.25 3.25 0 0 1 19 22.25H5A3.25 3.25 0 0 1 1.75 19V5A3.25 3.25 0 0 1 5 1.75Z"/>
  </svg>
  <text x="40" y="24.5" fill="currentColor" font-family="Inter, sans-serif" font-size="24" font-weight="600" letter-spacing="-0.3">Pocket Mint</text>
</svg>
